<?xml version="1.0" encoding="UTF-8"?>
<svg xmlns="http://www.w3.org/2000/svg" width="1000" height="1333" viewBox="0 0 1000 1333">
  <defs>
    <linearGradient id="bg" x1="0" y1="0" x2="0.7" y2="1">
      <stop offset="0" stop-color="#831843"/>
      <stop offset="0.55" stop-color="#BE185D"/>
      <stop offset="1" stop-color="#EC4899"/>
    </linearGradient>
    <radialGradient id="halo" cx="0.5" cy="0.40" r="0.62">
      <stop offset="0" stop-color="#FFFFFF" stop-opacity="0.9"/>
      <stop offset="1" stop-color="#FFFFFF" stop-opacity="0"/>
    </radialGradient>
    <radialGradient id="vignette" cx="0.5" cy="0.5" r="0.75">
      <stop offset="0.55" stop-color="#171217" stop-opacity="0"/>
      <stop offset="1" stop-color="#171217" stop-opacity="0.5"/>
    </radialGradient>
    <filter id="soft" x="-20%" y="-20%" width="140%" height="140%">
      <feGaussianBlur stdDeviation="25"/>
    </filter>
    <filter id="grain">
      <feTurbulence type="fractalNoise" baseFrequency="0.9" numOctaves="2" stitchTiles="stitch"/>
      <feColorMatrix type="saturate" values="0"/>
    </filter>
  </defs>

  <rect width="1000" height="1333" fill="url(#bg)"/>
  <rect width="1000" height="1333" fill="url(#halo)"/>

  <!-- fugas de luz -->
  <circle cx="820" cy="266.6" r="300" fill="#EC4899" opacity="0.35" filter="url(#soft)"/>
  <circle cx="150" cy="1039.74" r="260" fill="#831843" opacity="0.4" filter="url(#soft)"/>

  <!-- destellos dorados -->
  <g opacity="0.9">
    <path transform="translate(100 180) scale(0.55)" d="M12 0c.9 6.8 4.3 10.2 12 12-7.7 1.8-11.1 5.2-12 12-.9-6.8-4.3-10.2-12-12C7.7 10.2 11.1 6.8 12 0Z" fill="#F6E27A"/>
    <path transform="translate(880 430) scale(0.6)" d="M12 0c.9 6.8 4.3 10.2 12 12-7.7 1.8-11.1 5.2-12 12-.9-6.8-4.3-10.2-12-12C7.7 10.2 11.1 6.8 12 0Z" fill="#F6E27A"/>
    <path transform="translate(130 565) scale(0.45)" d="M12 0c.9 6.8 4.3 10.2 12 12-7.7 1.8-11.1 5.2-12 12-.9-6.8-4.3-10.2-12-12C7.7 10.2 11.1 6.8 12 0Z" fill="#F6E27A"/>
    <path transform="translate(825 675) scale(0.5)" d="M12 0c.9 6.8 4.3 10.2 12 12-7.7 1.8-11.1 5.2-12 12-.9-6.8-4.3-10.2-12-12C7.7 10.2 11.1 6.8 12 0Z" fill="#F6E27A"/>
    <path transform="translate(180 865) scale(0.5)" d="M12 0c.9 6.8 4.3 10.2 12 12-7.7 1.8-11.1 5.2-12 12-.9-6.8-4.3-10.2-12-12C7.7 10.2 11.1 6.8 12 0Z" fill="#F6E27A"/>
    <path transform="translate(785 975) scale(0.55)" d="M12 0c.9 6.8 4.3 10.2 12 12-7.7 1.8-11.1 5.2-12 12-.9-6.8-4.3-10.2-12-12C7.7 10.2 11.1 6.8 12 0Z" fill="#F6E27A"/>
    <path transform="translate(488 128) scale(0.6)" d="M12 0c.9 6.8 4.3 10.2 12 12-7.7 1.8-11.1 5.2-12 12-.9-6.8-4.3-10.2-12-12C7.7 10.2 11.1 6.8 12 0Z" fill="#F6E27A"/>
    <path transform="translate(40 820) scale(0.4)" d="M12 0c.9 6.8 4.3 10.2 12 12-7.7 1.8-11.1 5.2-12 12-.9-6.8-4.3-10.2-12-12C7.7 10.2 11.1 6.8 12 0Z" fill="#F6E27A"/>
  </g>

  <!-- florales -->
  <g opacity="0.85">
    <g transform="translate(160 1146.38) rotate(-14) scale(1.1111 1.1111)">
      <path d="M0 0 C 14 -40 10 -90 -6 -130" fill="none" stroke="#D4AF37" stroke-width="2.2" stroke-linecap="round"/>
      <path d="M-2 -46 C -30 -52 -44 -74 -42 -98 C -18 -92 -6 -72 -2 -46 Z" fill="#FBCFE8" opacity="0.5"/>
      <path d="M2 -70 C 28 -80 38 -102 34 -124 C 12 -116 2 -94 2 -70 Z" fill="#FBCFE8" opacity="0.35"/>
      <g transform="translate(-6 -134)">
        <ellipse cx="-7" cy="-3" rx="8" ry="12" transform="rotate(-32)" fill="#FBCFE8" opacity="0.75"/>
        <ellipse cx="7" cy="-4" rx="8" ry="12" transform="rotate(28)" fill="#FBCFE8" opacity="0.65"/>
        <circle cx="0" cy="-1" r="4.5" fill="#F6E27A"/>
        <path d="M-16 6 C -22 -6 -20 -20 -10 -26 M 16 6 C 22 -6 20 -20 10 -26" stroke="#D4AF37" stroke-width="1.6" fill="none" stroke-linecap="round"/>
      </g>
    </g>
    <g transform="translate(840 1199.7) rotate(16) scale(0.8889 0.8889)">
      <path d="M0 0 C 14 -40 10 -90 -6 -130" fill="none" stroke="#D4AF37" stroke-width="2.2" stroke-linecap="round"/>
      <path d="M-2 -46 C -30 -52 -44 -74 -42 -98 C -18 -92 -6 -72 -2 -46 Z" fill="#FBCFE8" opacity="0.5"/>
      <path d="M2 -70 C 28 -80 38 -102 34 -124 C 12 -116 2 -94 2 -70 Z" fill="#FBCFE8" opacity="0.35"/>
      <g transform="translate(-6 -134)">
        <ellipse cx="-7" cy="-3" rx="8" ry="12" transform="rotate(-32)" fill="#FBCFE8" opacity="0.75"/>
        <ellipse cx="7" cy="-4" rx="8" ry="12" transform="rotate(28)" fill="#FBCFE8" opacity="0.65"/>
        <circle cx="0" cy="-1" r="4.5" fill="#F6E27A"/>
        <path d="M-16 6 C -22 -6 -20 -20 -10 -26 M 16 6 C 22 -6 20 -20 10 -26" stroke="#D4AF37" stroke-width="1.6" fill="none" stroke-linecap="round"/>
      </g>
    </g>
    <g transform="translate(740 330) rotate(30) scale(0.6889 0.6889)">
      <path d="M0 0 C 14 -40 10 -90 -6 -130" fill="none" stroke="#D4AF37" stroke-width="2.2" stroke-linecap="round"/>
      <path d="M-2 -46 C -30 -52 -44 -74 -42 -98 C -18 -92 -6 -72 -2 -46 Z" fill="#FBCFE8" opacity="0.5"/>
      <path d="M2 -70 C 28 -80 38 -102 34 -124 C 12 -116 2 -94 2 -70 Z" fill="#FBCFE8" opacity="0.35"/>
      <g transform="translate(-6 -134)">
        <ellipse cx="-7" cy="-3" rx="8" ry="12" transform="rotate(-32)" fill="#FBCFE8" opacity="0.75"/>
        <ellipse cx="7" cy="-4" rx="8" ry="12" transform="rotate(28)" fill="#FBCFE8" opacity="0.65"/>
        <circle cx="0" cy="-1" r="4.5" fill="#F6E27A"/>
        <path d="M-16 6 C -22 -6 -20 -20 -10 -26 M 16 6 C 22 -6 20 -20 10 -26" stroke="#D4AF37" stroke-width="1.6" fill="none" stroke-linecap="round"/>
      </g>
    </g>
    <g transform="translate(262 352) rotate(-24) scale(-0.6889 0.6889)">
      <path d="M0 0 C 14 -40 10 -90 -6 -130" fill="none" stroke="#D4AF37" stroke-width="2.2" stroke-linecap="round"/>
      <path d="M-2 -46 C -30 -52 -44 -74 -42 -98 C -18 -92 -6 -72 -2 -46 Z" fill="#FBCFE8" opacity="0.5"/>
      <path d="M2 -70 C 28 -80 38 -102 34 -124 C 12 -116 2 -94 2 -70 Z" fill="#FBCFE8" opacity="0.35"/>
      <g transform="translate(-6 -134)">
        <ellipse cx="-7" cy="-3" rx="8" ry="12" transform="rotate(-32)" fill="#FBCFE8" opacity="0.75"/>
        <ellipse cx="7" cy="-4" rx="8" ry="12" transform="rotate(28)" fill="#FBCFE8" opacity="0.65"/>
        <circle cx="0" cy="-1" r="4.5" fill="#F6E27A"/>
        <path d="M-16 6 C -22 -6 -20 -20 -10 -26 M 16 6 C 22 -6 20 -20 10 -26" stroke="#D4AF37" stroke-width="1.6" fill="none" stroke-linecap="round"/>
      </g>
    </g>
    <g transform="translate(96 660) rotate(10) scale(0.62 0.62)">
      <path d="M0 0 C 14 -40 10 -90 -6 -130" fill="none" stroke="#D4AF37" stroke-width="2.2" stroke-linecap="round"/>
      <path d="M-2 -46 C -30 -52 -44 -74 -42 -98 C -18 -92 -6 -72 -2 -46 Z" fill="#FBCFE8" opacity="0.5"/>
      <path d="M2 -70 C 28 -80 38 -102 34 -124 C 12 -116 2 -94 2 -70 Z" fill="#FBCFE8" opacity="0.35"/>
      <g transform="translate(-6 -134)">
        <ellipse cx="-7" cy="-3" rx="8" ry="12" transform="rotate(-32)" fill="#FBCFE8" opacity="0.75"/>
        <ellipse cx="7" cy="-4" rx="8" ry="12" transform="rotate(28)" fill="#FBCFE8" opacity="0.65"/>
        <circle cx="0" cy="-1" r="4.5" fill="#F6E27A"/>
        <path d="M-16 6 C -22 -6 -20 -20 -10 -26 M 16 6 C 22 -6 20 -20 10 -26" stroke="#D4AF37" stroke-width="1.6" fill="none" stroke-linecap="round"/>
      </g>
    </g>
    <g transform="translate(908 908) rotate(-12) scale(0.7 0.7)">
      <path d="M0 0 C 14 -40 10 -90 -6 -130" fill="none" stroke="#D4AF37" stroke-width="2.2" stroke-linecap="round"/>
      <path d="M-2 -46 C -30 -52 -44 -74 -42 -98 C -18 -92 -6 -72 -2 -46 Z" fill="#FBCFE8" opacity="0.5"/>
      <path d="M2 -70 C 28 -80 38 -102 34 -124 C 12 -116 2 -94 2 -70 Z" fill="#FBCFE8" opacity="0.35"/>
      <g transform="translate(-6 -134)">
        <ellipse cx="-7" cy="-3" rx="8" ry="12" transform="rotate(-32)" fill="#FBCFE8" opacity="0.75"/>
        <ellipse cx="7" cy="-4" rx="8" ry="12" transform="rotate(28)" fill="#FBCFE8" opacity="0.65"/>
        <circle cx="0" cy="-1" r="4.5" fill="#F6E27A"/>
        <path d="M-16 6 C -22 -6 -20 -20 -10 -26 M 16 6 C 22 -6 20 -20 10 -26" stroke="#D4AF37" stroke-width="1.6" fill="none" stroke-linecap="round"/>
      </g>
    </g>
  </g>

  <!-- marco fino -->
  <rect x="45" y="59.985" width="910" height="1213.03"
        fill="none" stroke="#D4AF37" stroke-opacity="0.55" stroke-width="1.6"/>

  <rect width="1000" height="1333" fill="url(#vignette)"/>
  <rect width="1000" height="1333" filter="url(#grain)" opacity="0.05"/>

  <!-- leyenda -->
  <text x="500" y="1233.025" text-anchor="middle"
        font-family="Georgia, 'Times New Roman', serif" font-style="italic"
        font-size="39" letter-spacing="12"
        fill="#831843" opacity="0.9">Tania · XV</text>
</svg>
